<svg xmlns="http://www.w3.org/2000/svg" viewBox="0 0 512 512" id="buddha-statue"><rect width="373.91" height="4" x="69.07" y="474.68"></rect><rect width="355.55" height="4" x="78.26" y="446.27"></rect><rect width="392.26" height="4" x="59.87" y="503.1"></rect><rect width="383.08" height="4" x="64.47" y="488.89"></rect><rect width="364.73" height="4" x="73.66" y="460.48"></rect><rect width="346.67" height="4" x="82.57" y="432.06"></rect><path d="M433.72,409.14h-6.23V384.69H411.82a27.45,27.45,0,0,0-21.61-40l-73.76-10.35,35.61-29.92-8.78-79a30.36,30.36,0,0,0-26.14-27.35l-36.28-5.06a5.08,5.08,0,0,1-4.36-5v-9.24a37,37,0,0,0,4.1-3.22v3.19a7.93,7.93,0,0,0,7.92,7.93,4.18,4.18,0,0,0,4.18-4.18v-27.5a19.41,19.41,0,0,0,6.36-10.92l3.63-18.31a7,7,0,0,0-10-7.72v-8a29.72,29.72,0,0,0-14-25.22l.22-.06-1.77-6.6L268.8,69.6h-4.1V66.92l2.57-6.12L259.53,21H258V4.9h-4V21h-1.54L244.7,60.8l2.58,6.12V69.6h-4l-8.43,8.67-1.77,6.62.22.06a29.68,29.68,0,0,0-14,25.21v8a7,7,0,0,0-10,7.72l3.62,18.31a19.48,19.48,0,0,0,6.37,10.92v27.5a4.18,4.18,0,0,0,4.18,4.18,7.94,7.94,0,0,0,7.92-7.93v-3.2a35.57,35.57,0,0,0,4.1,3.21v9.26a5.09,5.09,0,0,1-4.37,5l-36.28,5.06c-15.4,2.15-24.93,14.78-26.14,34.66l-8.78,71.63,35.42,29.94-73.48,10.34a27.45,27.45,0,0,0-21.68,40H84.49v24.45H78.26v12.5H433.72Zm-141-284.68a3,3,0,0,1,4.87-2.47,3,3,0,0,1,1.19,3.06l-3.62,18.32a15.63,15.63,0,0,1-2.44,5.77v-4.39h0Zm-73.42,20.29h0v4.39a15.47,15.47,0,0,1-2.44-5.77l-3.63-18.32A3,3,0,0,1,214.4,122a3.07,3.07,0,0,1,1.8-.61,3.11,3.11,0,0,1,3.08,3.08ZM386,349.25H358.47l-.27-1.07a10.37,10.37,0,0,0-2.41-4.24l33.94,4.76a23.45,23.45,0,0,1,16.9,36.85,22.45,22.45,0,0,1-2.6,3.11,23.33,23.33,0,0,1-16.6,6.87h-115V377.1l75.95-23.85H386a14.37,14.37,0,0,1,12.65,7.56l3.52-1.9A18.35,18.35,0,0,0,386,349.25Zm-31.66,0v0h-6.59l-96,30.13V360.63l23.33,1.21.24-1.84a7.4,7.4,0,0,1,6.28-6.34l66-9A6.34,6.34,0,0,1,354.34,349.22Zm-85.93,29.13v17.18H158a6.26,6.26,0,0,1,4.77-4.21l66.07-9.27a7.34,7.34,0,0,1,7.76,4.39l.71,1.67ZM280,341.88l5.29-5,10.05,10.05-1.21,1-13,1.77a11.4,11.4,0,0,0-9.31,8l-35.51-1.83a1.9,1.9,0,0,1-1.23-.58,1.86,1.86,0,0,1-.51-1.4,2,2,0,0,1,2.1-1.79H257.1l.59-.94a11,11,0,0,1,9.43-5.24h17.05v-4Zm59.9-.18-38.35,5.22,10.8-9.08Zm3.83-76.14,4.13,37.21-49.45,41.56-10.21-10.22,37.54-35.54-1.81-13.21Zm-33.4,20.14,3.83-42.28,7.33,53.65L311,307Zm32.83-25.24-19.91,19.92L322,271.31l20.12-20.13Zm-1.59-14.37-20.24,20.24-1.24-9.07,20.44-20.45Zm-60.66,20.53V197.13l7.81,1.09V313.47h4V198.78l6.13.86v50.19h4V200.19l13.76,1.92A26.4,26.4,0,0,1,339.3,225.9l.65,5.82-20.57,20.56-3.55-26h-4.16l-5.36,59.16v.12l.79,25.12-32.93,31.18H247.1a14.87,14.87,0,0,0-3.38-3.34L280.3,302l-2.82-2.83L240,336.58a15.29,15.29,0,0,0-5.11-.89h-3.16L221.52,326Zm-75.84,11.95,71.84-71.84v10.33L205.6,288.35l.08-2.77Zm.37,15.61,71.47-71.46V233l-71.78,71.78Zm71.47-55.49V249l-66.48,66.48-5.3-5Zm0,16V265l-58.28,58.28-5.3-5Zm11.81-72.09a.18.18,0,0,1-.18.18,3.93,3.93,0,0,1-3.92-3.93v-7.43a36.93,36.93,0,0,0,4.1-6.32ZM267.88,74.42l5.64,5.89.62,2.33a29.36,29.36,0,0,0-6.26-1.77Zm-16.6-5.9h9.42V69.6h-9.42Zm-.68-4-.81-1.93h12.39l-.81,1.93ZM258,73.6h5.89v6.88l-.89,0h-5ZM255.74,25h.49l6.54,33.6H249.21ZM248,73.6h6v6.86h-5l-.95,0Zm-9.57,6.71L244,74.57v6.31a29.4,29.4,0,0,0-6.2,1.76Zm-15.18,29.85A25.73,25.73,0,0,1,249,84.46h14a25.73,25.73,0,0,1,25.71,25.7v.62a15.9,15.9,0,0,0-11.94-5.42h-6.83A15.94,15.94,0,0,0,256,113.58a16,16,0,0,0-13.94-8.22h-6.83a15.86,15.86,0,0,0-11.94,5.37Zm4.1,68.65a3.93,3.93,0,0,1-3.92,3.93.17.17,0,0,1-.18-.18V165a35.91,35.91,0,0,0,4.1,6.33Zm-4.1-30.42V121.3a11.45,11.45,0,0,1,.06-1.22,11.9,11.9,0,0,1,11.88-10.72h6.83A12,12,0,0,1,254,121.3h4a12,12,0,0,1,11.94-11.94h6.83A12,12,0,0,1,288.7,121.3v27.09a32.71,32.71,0,1,1-65.42,0ZM164.15,302.78l8.52-69.54v-.13c1.07-17.83,9.35-29.13,22.7-31l36.28-5.06a9.1,9.1,0,0,0,7.82-9v-6.92a36.69,36.69,0,0,0,33,0v6.89a9.08,9.08,0,0,0,4.39,7.74v5.25l-72.31,72.32-4.27-47.09h-3.7l-9.87,72.27,14.8,14h0l.15.14,3.09,2.93h0l21.16,20h-4.6v4h13.57a11,11,0,0,1,9.43,5.25l.59.94h12a15.77,15.77,0,0,0-2,2.18h-18.3a6,6,0,0,0-6.1,5.58,6.34,6.34,0,0,0,.21,1.9l-4.43-.23Zm37.52-17.08-.62,20.92L191,297.08,198,245.46Zm-94.51,70.6a23.46,23.46,0,0,1,15.17-7.61l77.1-10.85L219.71,355l-93.66-4.83a18.42,18.42,0,0,0-16.56,8.66l3.4,2.12a14.36,14.36,0,0,1,13-6.79l110,5.68c.2,0,.41,0,.61,0h0l11.37.59v20.21l-8.31,2.61a11.4,11.4,0,0,0-11.14-5.17l-66.15,9.29a10.32,10.32,0,0,0-8.27,8.16H124.54a23.47,23.47,0,0,1-17.38-39.23ZM88.49,388.69H102.7a27.49,27.49,0,0,0,21.84,10.84H387.43a27.29,27.29,0,0,0,19.43-8,27.63,27.63,0,0,0,2.41-2.8h14.22v20.45h-335Zm341.23,28.95H82.26v-4.5H429.72Z"></path><path d="M250.82,134.53v19.2a5.17,5.17,0,0,0,10.33,0v-19.2c0-2.52,4.36-5.33,10.62-5.33s10.61,2.81,10.61,5.33h4c0-5.24-6.42-9.33-14.61-9.33s-14.62,4.09-14.62,9.33v19.2a1.17,1.17,0,0,1-2.33,0v-19.2c0-5.24-6.42-9.33-14.61-9.33s-14.61,4.09-14.61,9.33h4c0-2.52,4.36-5.33,10.61-5.33S250.82,132,250.82,134.53Z"></path><path d="M248.33 136.28h-4c-.05.36-1.55 1.53-4.43 1.53s-4.37-1.17-4.43-1.53h-4c0 3.16 3.63 5.53 8.43 5.53S248.33 139.44 248.33 136.28zM272 137.81c-2.88 0-4.38-1.17-4.43-1.53h-4c0 3.16 3.62 5.53 8.43 5.53s8.43-2.37 8.43-5.53h-4C276.39 136.64 274.89 137.81 272 137.81zM266.1 161.82h-4c0 .85-2.29 2.42-6.05 2.42s-6-1.57-6-2.42h-4c0 3.66 4.32 6.42 10 6.42S266.1 165.48 266.1 161.82z"></path></svg>