<svg xmlns="http://www.w3.org/2000/svg" enable-background="new 0 0 2000 2000" viewBox="0 0 2000 2000" id="palm-tree"><path fill="#3c444f" d="M1394.2352295 1567.6593018c-100.0994873-39.0507813-233.4074707-60.5772705-375.3361816-60.5772705-5.0418091 0-10.0352783.0466309-15.0287476.09375h-.4691772c-90.5380859.989624-177.1659546 10.7873535-253.4296875 28.3105469-.0460205 0-.0460205 0-.0942993 0-.6578369.1414795-1.2719727.2823486-1.9298096.4709473-.0942993.0471191-.1425781.0471191-.2368774.0471191-37.5419312 8.7149658-72.4938965 19.2666016-104.1499023 31.6549072-89.972229 35.0939941-143.9551086 81.8701172-150.2665405 129.5404053H1544.501709C1538.1903076 1649.5294189 1484.2075195 1602.7532959 1394.2352295 1567.6593018zM968.352478 650.1356201c-.1403198.0471191-.2805786.0471191-.4232178.0942993-.6118164.0942993-1.2236328.1885986-1.8354492.3300781h-.1425781c-.0460205 0-.0943604 0-.1403198.0471191-.0942993 0-.2369385 0-.3312378.0471802-.1403198.0471191-.3289185.0471191-.4714966.0942993-.2346191.0471191-.5175171.1414185-.7521362.1885986-.8947144.1408691-1.791748.3760376-2.6381836.6118164-1.0373535.2357788-2.0723877.5186768-3.0614014.8010254-.1426392.0471191-.2828979.093689-.4255371.1408691-1.1293335.3300781-2.2609863.7072754-3.3903198 1.1304932-2.6864624 1.0367432-5.3706665 2.1672363-7.9145508 3.4863281-6.4540405 3.2506104-12.3422241 7.3953247-17.5703125 12.3887939-.4232178.3766479-.8464355.800415-1.2719727 1.2719727-.4714966.3766479-.8947144.8475342-1.2719116 1.2719116-.8464355.8947754-1.6491699 1.7423096-2.4013062 2.6376343-.8486938.9424438-1.6491699 1.9315186-2.4035645 2.9676514-.1885986.1414795-.2828979.282959-.3771973.4709473-.282959.3295288-.5175171.6595459-.7521362.989624-.5658569.7061157-1.083374 1.4599609-1.6031494 2.2138062-.0942993.1886597-.2346191.3295288-.3289185.5181274-.0460205.0465698-.0942993.1408691-.0942993.1880493-.7544556 1.1304321-1.4605713 2.2609253-2.166687 3.3914185-.7544556 1.2719727-1.4605713 2.5438843-2.1206665 3.8629761-.5175171 1.0361938-1.0350342 2.0723877-1.5065308 3.156311-.5175171 1.0361938-.9430542 2.1195068-1.366272 3.2506104-.1403198.3760376-.3289185.7532349-.4714966 1.1776123-.1403198.4232178-.3289185.8947144-.5175171 1.3656616-.1403198.4238281-.282959.8481445-.4232178 1.2719727-.2369385.8009644-.4715576 1.5542603-.7084351 2.3552856-.1863403.5180664-.3289185 1.083313-.4692383 1.6485596-.0942993.4243774-.2368774.8475952-.3311768 1.2719727-.0460205.0942993-.0460205.2357178-.0942993.3766479-.2346191.8952637-.4232178 1.789978-.6118774 2.7318726-.1885986.9425049-.3771973 1.9320679-.5175171 2.9211426-.0942993.6118164-.1885986 1.2247925-.2828979 1.8366089-.3289185 2.3552856-.5175171 4.7105713-.6118164 7.1129761 0 .2828979-.0482788.5657959-.0482788.8010254 0 .7538452-.0460205 1.4127808-.0460205 2.1200562 0 5.9353638.7061157 11.9172974 2.1184082 17.5703125 0 0 0 0 0 .0471802 0 0 .0482788 0 0 .0471191.0942993.0942993.0942993.2352295.1425781.3766479.7521362 3.0148315 1.6491699 5.8882446 2.7785034 8.7615967.4254761 1.0361938.8486938 2.0723877 1.3202515 3.1085815.4691772 1.0367432.9407349 2.072937 1.4605103 3.0625.374939.7532959.7521362 1.5543213 1.1776733 2.3081665.09198.1414185.1403198.2823486.2346191.4237671.4714966.8953247.9890137 1.7900391 1.5548096 2.6847534l.7061768 1.1304932c.1885986.282959.3771973.6129761.5657959.8953247.3289185.5652466.7061157 1.083313 1.083313 1.6014404 1.8355103 2.6853638 3.8618774 5.1820679 6.0285034 7.5839233.9430542 1.0367432 1.9320679 2.072937 2.9671021 3.0620117 2.1690063 2.1195068 4.524292 4.1453247 6.9255981 5.9824829 2.4012451 1.7900391 4.8991699 3.4857788 7.5373535 4.9934692 1.2719116.7532959 2.6381836 1.4599609 4.0043945 2.166687 2.6842041 1.3190918 5.5109863 2.5438843 8.4321289 3.5800781.1403198.0471191.3289185.0942993.4691772.1885986 7.6776733 2.6376343 15.7808838 4.0032959 24.0726318 4.0032959.8947754 0 1.7894897 0 2.6359253-.0471802h.0482788c.5175171-.0942993 1.083374-.0942993 1.6008911-.0942993 11.1645508-.6118164 21.8116455-3.7209473 31.4673462-9.1381836.0460205 0 .1403198-.0471802.1886597-.0942993.1885986-.1414795.4232178-.2823486.6577759-.3766479 2.8751221-1.6957397 5.7019043-3.532959 8.3861084-5.6530151.0460205 0 .0943604 0 .0943604-.0471802 8.9035645-6.8771973 16.157959-15.8268433 21.0571289-25.8609619 2.6359863-5.416687 4.6140137-11.1633911 5.8399658-17.1459351.2346191-1.1304932.4232178-2.2138062.6118164-3.3442993.0942383-.7072754.2369385-1.366272.2828369-2.072937.1427002-.9424438.282959-1.8843384.3312988-2.8734131.2346191-2.2609253.3288574-4.5219116.3288574-6.8300781 0-1.7905884-.0482178-3.5800781-.1885986-5.3706665v-.4232178c-.0483398-.8953247-.1402588-1.7434692-.2369385-2.6381836-.0458984-.1414795-.0458984-.3300781-.0919189-.5186768-.1427002-1.4128418-.3771973-2.7785034-.6601563-4.1447144-.0943604-.7067261-.2369385-1.366272-.3771973-2.0258179-.282959-1.3656616-.6118164-2.7319336-.9429932-4.0981445-.282959-.8947754-.5175781-1.7429199-.8005371-2.6382446-.9890137-3.25-2.3068848-6.5471191-3.8618164-9.7977295-.800415-1.7429199-1.6950684-3.3914795-2.6381836-5.0400391-.6601563-1.1776733-1.3662109-2.3081665-2.166626-3.4386597.0460205-.0471191 0-.1414185-.1403809-.1885986-.1425781-.3300171-.3311768-.6595459-.6140137-.9890137-.0943604-.1885986-.2346191-.4243774-.4232178-.6129761-.8947754-1.3656616-1.8837891-2.6847534-2.9211426-3.9561157-1.1776123-1.4605713-2.3553467-2.8739624-3.6271973-4.1930542-.0460205-.0942993-.1403809-.1414795-.1885986-.2351685-2.449585-2.5439453-4.8049316-4.8048706-7.3487549-6.8306885-7.3947754-5.9824829-15.732605-10.4101563-24.8248291-13.189209-5.9342041-1.7900391-12.0109863-2.8262329-18.1337891-3.0620117h-.1426392c-.2346191 0-.4714966-.0471191-.7061157-.0471191-.0482788 0-.0482788 0-.0942993 0-.4232178-.0471802-.8487549-.0471802-1.2236328-.0471802h-1.1776733c-1.4605103 0-2.875061.0471802-4.3356323.1414795-.5635376 0-1.1776123.0471191-1.7411499.1414185-.5657959 0-1.1776123.0471802-1.7434692.1414795-.1425781 0-.2828979 0-.4232178.0471191-.0482788 0-.0942993 0-.1885986.0471802-.0482788-.0471802-.1425781 0-.2368774 0-.9407349.09375-1.9298096.2351685-2.8728027.4232178H968.352478zM705.2210693 1038.7570801c4.2390747-2.0252686 9.3268433-.6118164 11.9190063 3.2977295l25.3422852 38.296875c32.3138428-32.6437988 56.1495361-62.6506958 71.1299438-89.4534912l-27.9804688-39.2865601c-2.5438843-3.5800171-2.2609863-8.4786377.6578369-11.7763672 2.9210815-3.25 7.7259521-4.0975952 11.5878296-1.9309082l33.4937134 18.512146c14.6032104-27.7446899 29.3927612-53.1818237 44.1362305-75.7927856l-11.116272-19.7841187c-2.0263672-3.6272583-1.4605103-8.1026001 1.366272-11.1168823 2.8728027-3.0148315 7.3487549-3.7686768 11.0702515-1.9314575l15.6865845 7.8668213c14.7894897-20.5856934 29.2523804-37.9674072 43.1471558-51.8633423-.3289185-.1885986-.6577759-.3771973-.9890137-.5657959-.800415-.4232178-1.6008301-.8947754-2.4013062-1.4128418-.3289185-.1408691-.6118164-.3294678-.9429932-.5652466-.0942993-.0471802-.1885986-.0942993-.3289185-.2357788-.4232178-.2351685-.8947144-.5175171-1.366272-.8475342-.7061157-.4243774-1.5065308-.9418945-2.2149658-1.4605713-.800415-.5181274-1.6008301-1.083374-2.3552856-1.6957397-.0460205 0-.0942993-.0465698-.1403198-.09375-.6118164-.4714966-1.2719116-.9424438-1.883728-1.4605103-.5175171-.3772583-1.083374-.8010254-1.6031494-1.2719727-.0460205 0-.092041-.0471191-.1403198-.1414185-.1403198-.0471802-.2828979-.1414795-.3771973-.2357788-.2346191-.1880493-.4715576-.4232178-.7061768-.6118164-.4714966-.3771973-.8947144-.8010254-1.3662109-1.2247925-1.1776733-1.0361938-2.3092651-2.0723877-3.4385986-3.156311-1.1293945-1.083313-2.2150269-2.166687-3.2040405-3.2977295-.3289185-.3289185-.6118164-.6589966-.9407349-1.0361938-.9890137-1.083313-1.8837891-2.166687-2.7808228-3.25-.6118164-.7532959-1.2236328-1.5076904-1.7894287-2.2609863-.5657959-.7538452-1.1293335-1.5076904-1.6951904-2.2609863-.4714966-.6595459-.8947144-1.2719116-1.3179321-1.9314575-.6141357-.8481445-1.1776123-1.6957397-1.6974487-2.543335-.4232178-.6129761-.800415-1.2719116-1.1776123-1.9320679-.8947754-1.5071411-1.7434692-3.0142212-2.5438843-4.5219727-.8004761-1.5070801-1.5548706-3.0614014-2.3070068-4.6633911-.4714966-1.083313-.9430542-2.166687-1.4145508-3.2971802-.1885986-.3771973-.3771973-.8009644-.4692383-1.1776123-.0482788-.0942993-.0942993-.2357788-.1425781-.3771973-.1885986-.3295288-.3289185-.7061768-.4232178-1.0361938-.0942993-.1414795-.1425781-.3300781-.1885986-.4709473C766.6469727 794.1378784 572.1959839 903.1875 602.954895 1198.8691406c22.0922852-16.1569824 69.3865356-51.9100342 115.0316162-94.6345215-6.3597412-19.8319092-14.083374-43.1960449-16.7215576-51.2515869l-.9430542-2.8255615C698.8613281 1045.6820068 700.9360352 1040.8300781 705.2210693 1038.7570801zM617.6984253 741.1911621c1.7434692-3.8629761 5.8422241-6.0767822 10.0352783-5.4638062 4.1447144.6118164 7.3947144 3.9561157 7.9122314 8.1491699l3.9584351 32.0786133c42.2064819-16.8164673 83.564209-30.7601318 123.1325073-41.4997559 4.8531494-12.9540405 10.0352173-26.2381592 10.0812378-26.3796387 1.6008301-4.0038452 5.6535645-6.4534302 9.8926392-5.8881836 4.2390747.4714966 7.6316528 3.8158569 8.2434692 8.0548706l2.2609863 16.4869995c34.057312-8.0548706 66.0421753-13.4244385 95.2003174-16.0154419.0942993-1.0361938.2346191-2.1195679.4714966-3.156311.1403198-1.0361938.3289185-2.1201172.5635376-3.156311 0-.1414185.0482788-.2822876.0966187-.4237671.3748779-1.9315186.800415-3.8624268 1.3639526-5.7467651.2368774-1.0367432.5657959-2.072937.8947144-3.0619507.2828979-.9890747.6141357-1.9780884.991333-2.9677124.3748779-1.1776123.800415-2.3081055 1.2236328-3.4385986.3289185-.8010254.6600952-1.6014404 1.0373535-2.3552856.1885986-.5652466.4232178-1.1304932.7061157-1.6957397.1885986-.4243774.3771973-.800415.5657959-1.1776123.1863403-.5181274.4232178-.9890747.7061157-1.4605713.3289185-.7061157.6578369-1.4128418 1.0350342-2.0723877 1.083374-2.166626 2.2609863-4.239624 3.5812378-6.2653809.6118164-1.0361938 1.2719727-2.0252075 1.9780884-3.0142822.6118164-.8953247 1.2259521-1.7905884 1.883728-2.6381836.7544556-1.083313 1.6008911-2.166687 2.449585-3.2028809-53.6539307-30.7129517-105.9876709-46.1165771-156.3432617-46.1165771-26.4256592 0-52.3337402 4.2390747-77.5817261 12.7183228-127.9396362 42.8665771-208.9139404 184.37146-238.0260315 243.6773071 53.2767334-30.3828735 105.9876404-57.1385498 157.049408-79.6552124C603.520752 772.8931885 617.5581055 741.5212402 617.6984253 741.1911621zM1335.7763672 1174.5158691c11.6844482-45.2684326 28.9718018-147.864624-21.1975098-240.0029907-44.1362305-81.0686035-129.9154053-136.5120239-255.0765381-164.7753906-3.9078369 6.6885986-8.7609863 12.9068604-14.3203125 18.4178467C1099.1672363 834.7428589 1241.519165 970.21875 1335.7763672 1174.5158691zM1421.8408203 823.060791c.8947754-4.5697021 4.9912109-7.8197021 9.6557617-7.6311035 4.6622314.1885986 8.4780273 3.7686768 8.9979248 8.3849487l6.8771973 62.8859253c35.6580811 24.8713379 68.0662842 52.0042114 96.5665283 80.833374-4.241333-49.5551758-23.6470947-162.2792358-111.829834-230.5823975-82.2922363-63.7806396-203.8721924-74.6151733-361.4414063-32.2672119.1885986.9890137.3771973 1.9780273.5174561 2.9676514.1885986.9424438.3311768 1.8372192.4255371 2.7790527.0460205.3300781.0942383.7067261.1402588 1.0361938 0 .1414795.0483398.2357788.0483398.3771973.1402588 1.2247925.282959 2.449585.3288574 3.6743774.0460205.1414795.0460205.2823486.0460205.4709473.0943604.7067261.1425781 1.4128418.1425781 2.166687.0943604 1.5071411.1403809 3.0620117.1403809 4.5697021 0 1.4128418-.0460205 2.8256226-.1403809 4.2390137v.0471802c.0460205 0 .0460205 0 0 .0471191.0460205.0471802.0460205.1886597 0 .2357788 0 .2823486 0 .5646973-.0482178.8475952-.0460205 1.2247925-.1403809 2.449585-.282959 3.6743774 0 .0942993 0 .1885986-.0460205.2828979v.0471802c37.0244141 7.2538452 101.6544189 22.4688721 176.9750977 51.2974854l3.1097412-40.1812134c.3288574-4.4276733 3.7697754-8.0077515 8.1491699-8.572998 4.3815918-.6123657 8.6206055 1.9786377 10.1271973 6.1234131l21.4344482 60.0596924c43.6186523 18.8894043 84.6015625 40.2755127 122.0974121 63.6868896L1421.8408203 823.060791zM1309.3508301 490.2122192c-128.4571533 38.5792236-214.1879883 124.1709595-256.3945313 175.7514038.9890137 1.2719116 1.9781494 2.5910034 2.9188232 3.9567261.8487549 1.1776123 1.6491699 2.4024048 2.4035645 3.6271973.0943604.1880493.1885986.3294678.282959.4709473 21.0089111-11.6821289 58.2701416-29.6296387 113.0534668-46.4932251l-7.0197754-25.1542358c-1.1777344-4.1453247.6118164-8.5735474 4.3815918-10.6931152 3.7215576-2.166687 8.4321289-1.5076904 11.4475098 1.6014404l24.116333 24.9190674c32.4104004-8.5258179 67.03125-15.5916748 103.0206299-20.9623413l1.9320068-46.163208c.1885986-4.7576904 3.8618164-8.572937 8.5723877-8.9973145 4.7105713-.4709473 8.9979248 2.6853638 10.032959 7.3016357l9.8927002 43.7612915c35.7064209-4.3339233 72.9194336-7.1601563 110.838501-8.3377686v-55.1605225c0-4.8048706 3.6295166-8.8564453 8.3861084-9.3745728 4.8048096-.5180664 9.1865234 2.6376343 10.2215576 7.3482056 0 0 6.8311768 31.2787476 12.4825439 56.5739136 27.274292-.2352295 55.3031006.2828979 83.6124268 1.6019897C1539.4162598 546.6446533 1460.2774658 444.9437866 1309.3508301 490.2122192zM1018.5678101 638.7363892c.0483398 0 .0942993 0 .1426392.0471802.800415.3300781 1.5548096.7061157 2.3069458 1.1304932 1.6951904.800415 3.3442993 1.6957397 4.9934692 2.6381836.3289795.1414795.6118164.3294678.8947754.5175171.3771973.1885986.7060547.3771973 1.0373535.6129761.6118164.3766479 1.2236328.7532959 1.8354492 1.1304932 23.7896729-35.8007202 76.1717529-110.0392456 146.3103027-182.7700806l-13.9890137-27.6038513c-2.0263672-3.9566956-1.0373535-8.7615662 2.4012451-11.5412292 3.3925781-2.8256226 8.291748-2.8727722 11.7763672-.1880188l21.9036865 17.0993652c24.8730469-24.3538208 49.9807129-46.2580566 74.7111816-65.3826294l-7.1141357-22.7989807c-5.6512451-17.9946594-7.8179932-24.9190674-8.0548096-25.8609314-1.1777344-4.2402039.7543945-8.7621765 4.6162109-10.8345337 3.9101563-2.0723572 8.7149658-1.1304932 11.5877686 2.2138367l29.8182373 34.8111267c28.923584-19.7375488 57.6101074-35.7058716 85.6849365-47.6237183-60.1057129-3.5329285-175.8917236.5652466-262.425293 70.3283691-69.8580322 56.2915955-107.87146 144.473175-113.005249 262.096405.4692383.1879883.9407349.3760376 1.4122314.5646362C1016.4954834 637.7473755 1017.5327759 638.2183228 1018.5678101 638.7363892zM727.8791504 394.1171875c3.7675171 1.3656616 6.2654419 4.9457397 6.2654419 8.9024658 0 1.4133911 0 1.8371887-9.3751221 54.6429749 42.0201416 22.2808838 81.8713379 48.6599121 118.5667725 78.5247498l20.1602173-12.012207c3.5789185-2.1195068 8.1031494-1.6480103 11.1645508 1.1304932 3.0614624 2.7796631 3.9561768 7.2073364 2.2127075 10.9760132l-9.5154419 20.2556152c27.6515503 24.5890503 53.7965698 51.6276245 77.8668823 80.5971069.1886597-.093689.3772583-.1880493.5658569-.2351685.9890137-.4237671 1.9297485-.7538452 2.9187622-1.083313 1.2719727-.4709473 2.4979248-.8953247 3.7698364-1.2719727.4232178-.1408691.8004761-.2823486 1.2236938-.3766479 1.2719116-.3771973 2.5438843-.7538452 3.8157959-1.0361938.4232178-.1414185.8947144-.2357178 1.3202515-.3300171.3289185-.0942993.6578369-.1414795.9890137-.2357788.8464355-.1880493 1.6468506-.3766479 2.5438843-.5175171.092041-.0471802.2346191-.0471802.3289185-.0471802.6118164-.1414185 1.2719727-.2357178 1.8837891-.3300171.6600952-.1414795 1.3202515-.2357788 1.9780884-.282959.800415-.1879883 1.6491089-.3294678 2.4978638-.4237671h.1885986c.3289185-.0465698.7061157-.09375 1.0350342-.1408691-21.7633667-62.6507568-86.9085083-217.2988892-211.7384033-264.7340088-65.6190186-24.9656372-139.2445679-16.722168-219.135498 24.4952698 30.0045166 5.7939148 81.8690186 18.8422546 143.7664795 46.7284241C720.8616333 391.6204529 721.0961914 391.7147522 727.8791504 394.1171875zM996.5238647 1488.4278564c36.5529175-128.4100342 84.5532837-380.56604 17.8532104-679.9225464-6.2653809 2.5438843-12.8137207 4.333313-19.5506592 5.416687 7.5856323 55.632019 18.890564 179.5200806-4.8048706 314.6658936-28.5922852 162.9859619-97.5072632 290.7358398-205.0037842 380.3308105 65.5246582-12.2945557 137.1721191-19.3132324 211.4578247-20.4908447H996.5238647z"></path></svg>