<svg xmlns="http://www.w3.org/2000/svg" width="512" height="512" id="surf"><path d="M496 432h-78.09c9.98-16.95 18.58-40.13 25.2-68.14C451.54 328.21 456 288.14 456 248c0-2.64-.06-5.25-.14-7.84.01-.31-.01-.62-.03-.92a244.223 244.223 0 0 0-3.49-33 8.1 8.1 0 0 0-.3-1.69c-6.71-36.87-20.78-67.26-33.14-88.36-18.33-31.32-36.56-49.18-37.32-49.93a8.013 8.013 0 0 0-11.15 0c-1.82 1.76-41.54 40.91-62.24 105.32-34.75-46.14-74.37-68.6-76.19-69.62a8 8 0 0 0-10.77 2.89c-.55.92-13.53 22.89-23.13 57.9-8.87 32.3-16.36 82.27-1.72 136.91 3.09 11.53 6.6 23.01 10.46 34.3a5.663 5.663 0 0 0 .27.79c3.05 8.91 6.32 17.69 9.77 26.26a7.957 7.957 0 0 0 .62 1.52c10.48 25.81 22.57 49.69 35.3 69.47H16a8 8 0 0 0 0 16h480a8 8 0 0 0 0-16zM319.04 191.77C332.8 137.05 363.41 98.05 376 83.74c12.8 14.53 44.18 54.57 57.66 111.05l-55.13-18.38a7.965 7.965 0 0 0-5.06 0l-55.14 18.38c.24-1.01.46-2.02.71-3.02zm-4.29 21.08L376 192.43l61.24 20.42c.81 5.14 1.46 10.4 1.92 15.77l-60.63-20.21a7.965 7.965 0 0 0-5.06 0l-60.61 20.2c.45-5.26 1.07-10.52 1.89-15.76zm-102.91 82.67c-13.66-50.97-6.7-97.76 1.55-128.03a262.593 262.593 0 0 1 17.74-47.2 271.046 271.046 0 0 1 71.54 71.07c-1.1 4.63-2.05 9.28-2.88 13.95l-.03.15a245.3 245.3 0 0 0-3.6 33.86v.06c-.1 2.88-.16 5.75-.16 8.62 0 11.09.35 22.17 1.02 33.15l-19.78-1.19a8.09 8.09 0 0 0-5.09 1.45l-53.4 37.62q-3.735-11.67-6.91-23.51zm12.24 39.33 55-38.75 19.17 1.15q.66 7.29 1.52 14.48l-14.25-.85a7.99 7.99 0 0 0-4.89 1.3l-52.2 34.48q-2.23-5.85-4.35-11.81zM272.06 432c-13.44-19.16-26.37-43.46-37.57-70.18l52.73-34.81 14.74.88c1.88 12.36 4.19 24.4 6.93 35.97 6.62 28.01 15.22 51.19 25.2 68.14zm126.77 0H381v-96a8 8 0 0 0-16 0v96h-11.83c-16.51-22.54-29.56-64.1-36.25-112.24a6.621 6.621 0 0 0-.15-1.1 524.85 524.85 0 0 1-3.14-29.28 2.642 2.642 0 0 0-.02-.29A530.684 530.684 0 0 1 312 248c0-.75.03-1.5.04-2.25L376 224.43l63.98 21.33c.01.74.02 1.49.02 2.24 0 76.12-16.81 150.75-41.17 184zM80 456H64a8 8 0 0 0 0 16h16a8 8 0 0 0 0-16zm32 16a8 8 0 0 0 0-16h-8a8 8 0 0 0 0 16zm24 8h-24a8 8 0 0 0 0 16h24a8 8 0 0 0 0-16zm280-16h-16a8 8 0 0 0 0 16h16a8 8 0 0 0 0-16zm32 8a8 8 0 0 0 0-16h-8a8 8 0 0 0 0 16zm24 8h-24a8 8 0 0 0 0 16h24a8 8 0 0 0 0-16zm-95.98 8h-.01a8.005 8.005 0 1 0 .01 0zm-216-8h-.01a8.005 8.005 0 1 0 .01 0zM248 456h-16a8 8 0 0 0 0 16h16a8 8 0 0 0 0-16zm32 8h-8a8 8 0 0 0 0 16h8a8 8 0 0 0 0-16zm-72 24h-24a8 8 0 0 0 0 16h24a8 8 0 0 0 0-16zm24.02-8h-.01a8.005 8.005 0 1 0 .01 0zm112-24h-.01a8.005 8.005 0 1 0 .01 0zm-312 0h-.01a8.005 8.005 0 1 0 .01 0zM104 120a40 40 0 1 0-40-40 40.045 40.045 0 0 0 40 40zm0-64a24 24 0 1 1-24 24 24.028 24.028 0 0 1 24-24zm0-24a8 8 0 0 0 8-8v-8a8 8 0 0 0-16 0v8a8 8 0 0 0 8 8zm-8 104v8a8 8 0 0 0 16 0v-8a8 8 0 0 0-16 0zm56-56a8 8 0 0 0 8 8h8a8 8 0 0 0 0-16h-8a8 8 0 0 0-8 8zM40 88h8a8 8 0 0 0 0-16h-8a8 8 0 0 0 0 16zm103.6-39.6a7.974 7.974 0 0 0 5.657-2.343l5.657-5.658a8 8 0 1 0-11.314-11.31l-5.657 5.657A8 8 0 0 0 143.6 48.4zm-84.855 65.541-5.657 5.659A8 8 0 1 0 64.4 130.911l5.657-5.657a8 8 0 1 0-11.314-11.313zm79.196-.001a8 8 0 0 0 0 11.314l5.657 5.657a8 8 0 1 0 11.314-11.311l-5.657-5.658a8 8 0 0 0-11.314-.002zM58.745 46.059a8 8 0 1 0 11.314-11.313L64.4 29.089A8 8 0 1 0 53.088 40.4z"></path><path d="M373 296a8 8 0 0 0-8 8v8a8 8 0 0 0 16 0v-8a8 8 0 0 0-8-8Z"></path></svg>