<svg xmlns="http://www.w3.org/2000/svg" viewBox="0 0 100 100" id="temple"><path fill="#060606" d="M73.1 58c1.1 0 1.9-.9 1.9-1.9v-2.8c0-1.1-.9-1.9-1.9-1.9H62.9l-2.5-15.9v-.1c-.4-2.4-1.6-4.7-3.5-6.3-1.7-1.4-3.7-2.3-5.9-2.5v-1.5l5-2.5c.3-.2.5-.5.5-.9s-.2-.7-.5-.9l-5.4-2.7c-.2 0-.4-.1-.6-.1-.6 0-1 .4-1 1v7.6c-4.7.4-8.6 4-9.4 8.8v.1l-2.5 15.9H26.9c-1.1 0-1.9.9-1.9 1.9v2.8c0 1.1.9 1.9 1.9 1.9h1.7v17.3h-1.7c-1.1 0-1.9.9-1.9 1.9V80c0 1.1.9 1.9 1.9 1.9h46.3c1.1 0 1.9-.9 1.9-1.9v-2.8c0-1.1-.9-1.9-1.9-1.9h-1.7V58h1.6zM54.9 75.3V64c0-1.1-.9-2-2-2H47c-1.1 0-2 .9-2 2v11.3h-4.5V58h18.9v17.3h-4.5zm-19.6-7.6h3.3v3.1h-3.3v-3.1zm3.2-2h-3.3v-3.1h3.3v3.1zm-3.2 7.1h3.3v2.6h-3.3v-2.6zm3.2-14.7v2.6h-3.3v-2.6h3.3zm-5.2 3.5v13.7h-2.7V58.1h2.7v3.5zm28.2 6.1h3.3v3.1h-3.3v-3.1zm0 5.1h3.3v2.6h-3.3v-2.6zm3.2-7.1h-3.3v-3.1h3.3v3.1zm2 6.1V58h2.7v17.2h-2.7v-3.4zm-2-11.2h-3.3V58h3.3v2.6zm-3.8-9.2h-6.4L53 39.7h6l1.9 11.7zM50 28.5c2 0 4 .7 5.6 2.1 1.5 1.3 2.5 3 2.8 4.9H41.6c.8-4 4.2-7 8.4-7zm-9 11.2h6l-1.4 11.7h-6.4L41 39.7z"></path></svg>