<svg xmlns="http://www.w3.org/2000/svg" width="655.359" height="655.359" fill-rule="evenodd" clip-rule="evenodd" image-rendering="optimizeQuality" shape-rendering="geometricPrecision" text-rendering="geometricPrecision" viewBox="0 0 6.827 6.827" id="camel"><g><path fill-rule="nonzero" d="M3.282 3.859c.008-.077-.13-.182-.306-.265a1.297 1.297 0 0 0-.371-.113c-.112-.014-.212-.007-.274.032-.05.033-.075.097-.054.203.059.292-.078.378-.207.459-.064.04-.125.079-.115.166.01.092.007.243.004.41-.005.291-.012.634.047.753a.08.08 0 0 1-.073.115h-.42a.08.08 0 0 1-.08-.084l-.049-1.504a.08.08 0 0 1 .04-.073c.204-.129.128-.305.037-.514-.082-.19-.174-.402-.132-.645.07-.411.807-.865.927-.937.397-.615.643-.655.885-.5.084.054.162.13.246.213.082.08.17.168.272.239.435.307.497.389.678.626l.074.097c.071.093.107.12.12.11.102-.078.084-.59.078-.77a.85.85 0 0 1 0-.076c.074-.737.557-.593.635-.565.07.009.488.069.65.26.221.262-.074.405-.075.405a.08.08 0 0 1-.035.009 7.552 7.552 0 0 0-.418.035l-.006.117c-.015.302-.05.966-.293 1.128-.05.06-.298.345-.617.36a.427.427 0 0 0-.188.055c-.187.102-.335.335-.435.608-.102.28-.152.601-.14.872a.977.977 0 0 0 .095.416.08.08 0 0 1-.072.118H3.3a.08.08 0 0 1-.08-.088c0-.081-.002-.207-.006-.354-.01-.467-.026-1.138.068-1.318zm-.238-.41c.243.116.428.29.393.451a.08.08 0 0 1-.014.034c-.075.104-.06.776-.05 1.24l.006.285h.211a1.337 1.337 0 0 1-.062-.367c-.013-.29.04-.634.15-.933.111-.307.284-.571.507-.694a.584.584 0 0 1 .259-.075c.26-.011.472-.266.502-.304a.08.08 0 0 1 .027-.025c.18-.102.213-.726.228-1.007.004-.084.007-.141.016-.165.035-.093.45-.13.542-.138.027-.017.083-.069.013-.153-.127-.15-.508-.2-.552-.205a.08.08 0 0 1-.026-.005c-.006-.003-.368-.152-.427.428l.001.056c.007.202.027.774-.139.901-.09.07-.202.046-.344-.138a21.024 21.024 0 0 1-.075-.099c-.17-.222-.227-.298-.643-.592-.111-.078-.205-.17-.291-.255a1.523 1.523 0 0 0-.22-.192c-.163-.104-.342-.055-.673.462a.08.08 0 0 1-.03.032c-.003.001-.803.462-.867.835-.034.197.048.386.121.555.116.266.214.493-.062.69l.045 1.388h.237c-.037-.181-.032-.463-.027-.71a3.768 3.768 0 0 0-.004-.39c-.02-.187.081-.25.19-.319.083-.052.172-.108.135-.293-.037-.182.018-.3.125-.368.096-.062.233-.075.38-.056.138.018.287.065.418.127z"></path><path fill-rule="nonzero" d="M1.43 3.058a.08.08 0 1 0-.04-.154c-.003 0-.64.159-.519 1.189a.08.08 0 0 0 .159-.018c-.105-.892.398-1.016.4-1.017zM2.483 2.269a.08.08 0 0 0 .112.113s.359-.359.718 0a.08.08 0 0 0 .113-.113c-.472-.472-.942-.002-.943 0z"></path></g><path fill="none" d="M0 0h6.827v6.827H0z"></path></svg>